<svg version="1.1" id="Layer_1" xmlns="http://www.w3.org/2000/svg" xmlns:xlink="http://www.w3.org/1999/xlink" x="0px" y="0px" viewBox="0 0 576 864" enable-background="new 0 0 576 864" xml:space="preserve">
<g class="clickable" id="vijayanagara" data-id="vijayanagara-data">
	<path fill="#FF793F" d="M352.33,430.659c0,0,0,2.361,0,2.835s-0.115,3.434-0.115,3.434s-0.347,2.72-0.347,3.077
		c0,0.347-1.308,5.32-1.308,5.32l-1.897,4.268c0,0-0.937,1.18-1.295,1.18s-4.256,0-4.256,0l-0.359,4.258l-1.18,1.18l-2.604,3.435
		l-1.653,2.833l-0.831,2.963l0.113,1.537l0.116,2.719l-2.59,4.024l-1.655,1.295l-0.717,3.089c0,0-1.063,1.053-1.422,1.41
		c-0.349,0.359-4.256,3.667-4.256,3.667l-1.539,1.422h-4.614l-2.962,0.949l-2.243-0.59l-2.128-0.718l-1.423-3.31l-0.938-1.536
		l-2.371-1.423l-8.997-7.808l-7.45-0.475l-1.18-0.833l-1.422-0.231l-1.783,0.231l-1.769,1.308l-0.359,1.538l-0.358,0.59
		l-2.001-1.781l-1.192-0.82l-2.358-0.705l-2.718-0.359l-3.909-0.114l-2.244,5.909l0.346,0.949l3.204,3.19l0.347,3.668l-1.769,1.896
		l-1.064,2.729l0.474,2.834v1.539l-1.192,0.832l-2.359,0.705l-1.77,1.064l-3.794-1.896l-4.141-1.063l-3.667-4.615l-6.512-5.322
		l-5.088-2.484l-3.077-1.18v-2.847l-1.886-3.424h-4.626l-0.115-5.101l-1.769-0.937l-3.436,0.474l0.475-3.666l-3.435-3.908
		l-1.643-1.182l-0.948-1.896l3.412-7.554l-0.706-7.219h2.129l2.844,0.719l3.308-0.358l1.538-1.538l0.59-2.128l2.487-2.13
		l1.654-1.665l2.486-0.705h2.244l2.129-0.475l2.128-0.938l2.371-2.012l0.948-1.539l-1.075-2.486l-1.295-1.538l-0.948-0.948
		l1.064-1.897l2.128-0.948h11.833l4.382-2.59l5.563-4.269l4.371-1.769c0,0,5.807-1.179,6.154-1.179c0.359,0,6.522-0.589,6.522-0.589
		l4.615-1.897l4.014-1.781l1.181-3.077l1.78-3.309l1.296-1.653l2.256-1.539l2.602-0.833l4.499-0.59h3.065l2.244-0.948l2.961-1.539
		l9.032-7.854c-0.035,0.371-0.047,0.752-0.082,1.122c-0.011,0.035,0.023,0.046,0.047,0.046c-0.012,0.127-0.033,0.243-0.047,0.37
		c-0.382,0.208-0.762,0.428-1.051,0.717c-0.06,0.058-0.117,0.127-0.163,0.197c-0.058,0.058-0.104,0.139-0.14,0.22
		c-0.033,0.069-0.068,0.139-0.092,0.219c-0.126,0.336-0.15,0.753-0.022,1.296c0.382,1.7,0.382,4.51,1.307,4.869
		c3.76,1.434,2.915,4.141,2.44,7.182c1.329-0.543,2.336-0.936,4.014-1.607c0,2.013,0.625,4.152-0.174,5.297
		c-0.821,1.168-2.996,1.527-4.66,1.909c-2.13,0.497-4.351,0.646-6.721,0.983c-1.606-1.167-3.471-3.518-5.563-3.736
		c-1.725-0.174-3.712,2.152-4.626,2.753c2.046,4.164,3.979,7.98,5.794,11.856c0.417,0.901,0.417,2.011,0.612,3.018
		c-1.342,0.174-2.706,0.567-4.002,0.428c-0.96-0.105-1.827-0.938-2.719-1.422c-0.485,1.676-0.462,3.284-1.226,3.896
		c-2.729,2.188-2.463,4.592-0.531,7.287c1.941,2.718,4.51,2.845,7.218,3.331l-1.11,0.833c1.354,2.279,2.718,4.557,3.551,5.934
		c3.262-0.96,5.701-1.666,7.944-2.324c0.812,1.308,1.411,2.278,1.539,2.497c3.701-1.814,6.836-3.354,10.12-4.961
		c-0.22-0.82-0.451-1.758-0.692-2.684c1.86-0.347,3.562-0.648,6.084-1.11c-1.111-1.342-2.071-2.51-2.916-3.527l1.459,0.219
		l2.717,0.949L352.33,430.659z"></path>
	
		<text id="XMLID_57_" transform="matrix(0.5935 -0.8048 0.8048 0.5935 258.6191 482.8691)" fill="#FFFFFF" font-family="&#39;MyriadPro-Regular&#39;" font-size="17.6614">Vijayanagara</text>
</g>
</svg>